<?xml version="1.0" standalone="no"?>
<!DOCTYPE svg PUBLIC "-//W3C//DTD SVG 20010904//EN" "http://www.w3.org/TR/2001/REC-SVG-20010904/DTD/svg10.dtd">
<!-- Created using Krita: https://krita.org -->
<svg xmlns="http://www.w3.org/2000/svg" 
    xmlns:xlink="http://www.w3.org/1999/xlink"
    xmlns:krita="http://krita.org/namespaces/svg/krita"
    xmlns:sodipodi="http://sodipodi.sourceforge.net/DTD/sodipodi-0.dtd"
    width="307.2pt"
    height="172.8pt"
    viewBox="0 0 307.2 172.8">
<defs/>
<path id="shape0" transform="translate(-28.4807116310003, 88.0313066908965)" fill="#b2b2b2" fill-rule="evenodd" stroke="#000000" stroke-width="0.48" stroke-linecap="square" stroke-linejoin="bevel" d="M25.3569 21.7178C40.0734 26.8547 50.139 31.575 55.5535 35.8789C63.6754 42.3348 84.0841 60.661 101.577 64.6178C119.071 68.5746 157.181 66.9086 179.047 72.9479C200.914 78.9872 192.167 78.9872 206.745 88.7751C216.463 95.3003 229.236 96.6887 245.063 92.9401C244.091 84.4712 246.105 78.6401 251.103 75.4469C258.6 70.6571 286.922 57.5372 332.113 52.3309C362.24 48.86 365.78 38.9333 342.734 22.5508C294.558 33.5187 264.986 38.8639 254.018 38.5862C237.566 38.1697 110.116 44.8338 94.0802 36.2954C78.0448 27.7571 66.5909 5.47407 24.9404 0.684258C-2.82658 -2.50895 -7.40814 5.47407 11.1958 24.6333" sodipodi:nodetypes="czzzzczzczzzc"/><path id="shape1" transform="matrix(0.73801096403306 -0.0190694230195303 0.146558783118271 0.721404789440476 102.027626591428 -7.45630777819064)" fill="#835b4a" fill-rule="evenodd" stroke="#4d2300" stroke-width="1.44" stroke-linecap="square" stroke-linejoin="bevel" d="M7.51037 67.0573C10.7036 65.5301 13.6191 55.4646 16.257 36.8607C18.8948 18.2568 19.7278 6.03932 18.756 0.208252L39.5813 0C31.5288 41.0952 30.0711 64.9054 35.208 71.4306C40.3448 77.9559 37.3599 77.4005 26.2531 69.7646C25.0036 80.4549 23.2681 83.0233 21.0468 77.4699C18.8254 71.9165 17.6453 70.5282 17.5065 73.3049C11.2589 83.5787 8.69047 85.1059 9.80115 77.8864C11.4672 67.0573 -1.86099 80.802 0.221532 75.5957C2.30406 70.3893 7.30212 67.6821 7.51037 67.0573Z" sodipodi:nodetypes="czcczczczcc"/><path id="shape2" transform="matrix(0.73801096403306 -0.0190694230195303 0.146558783118271 0.721404789440476 94.4398689255902 -16.0075754065214)" fill="#00ff20" fill-rule="evenodd" stroke="#377534" stroke-width="1.092" stroke-linecap="square" stroke-linejoin="bevel" d="M44.3435 42.9686C48.3951 42.4366 51.3808 43.742 59.1555 40.8257C70.8177 36.4512 68.709 30.9864 69.3338 24.1394C69.9585 17.2925 75.7896 6.83184 57.6716 3.02797C45.593 0.492063 23.2433 -3.22609 9.5653 5.3103C-4.11275 13.8467 -0.569658 25.5342 4.56724 31.3668C12.2726 40.1157 8.57401 44.6124 22.1104 43.8516C35.6468 43.0908 40.2919 43.5006 44.3435 42.9686Z" sodipodi:nodetypes="czzzzzcz"/><path id="shape01" transform="translate(108.537379497353, 5.73914603874029)" fill="none" stroke="#43bd3d" stroke-width="0.72" stroke-linecap="square" stroke-linejoin="bevel" d="M0 0C0.274229 3.31653 3.76273 4.94781 10.4655 4.89386" sodipodi:nodetypes="cc"/><path id="shape011" transform="matrix(0.713566321252737 -0.700587685571078 0.700587685571078 0.713566321252737 130.334939116612 10.2434077715493)" fill="none" stroke="#43bd3d" stroke-width="0.72" stroke-linecap="square" stroke-linejoin="bevel" d="M0 0C0.262682 3.83416 3.60429 5.72005 10.0248 5.65768" sodipodi:nodetypes="cc"/><path id="shape02" transform="matrix(0.989716053814083 -0.143045911590233 0.143045911590233 0.989716053814083 121.983421168315 -1.62108909802912)" fill="none" stroke="#43bd3d" stroke-width="0.72" stroke-linecap="square" stroke-linejoin="bevel" d="M0 0C0.274229 3.31653 3.76273 4.94781 10.4655 4.89386" sodipodi:nodetypes="cc"/><path id="shape03" transform="translate(99.1543412602889, -4.75796112962281)" fill="none" stroke="#43bd3d" stroke-width="0.72" stroke-linecap="square" stroke-linejoin="bevel" d="M0 0C0.274229 3.31653 3.76273 4.94781 10.4655 4.89386" sodipodi:nodetypes="cc"/><path id="shape3" transform="translate(144.859290455487, -18.4774175240579)" fill="#cab40b" fill-rule="evenodd" stroke="#a69300" stroke-width="1.092" stroke-linecap="square" stroke-linejoin="bevel" d="M126.57 125.35C155.264 109.328 145.755 123.07 170.841 117.081C187.565 113.089 197.993 107.274 202.124 99.6384L220.416 38.2614C167.337 10.6765 131.391 -1.99272 112.577 0.25376C84.3554 3.62348 78.6021 37.563 60.1571 33.8274C41.7121 30.0919 32.0113 55.7518 21.559 59.4425C5.88039 64.9785 -4.84263 102.467 2.21273 108.003C9.26809 113.539 23.9107 116.728 27.0465 123.467C30.1822 130.207 34.528 138.254 66.2429 137.427C97.9578 136.6 97.8753 141.372 126.57 125.35Z" sodipodi:nodetypes="czcczzzzzzz"/><path id="shape4" transform="translate(166.174272437468, -17.9654445229031)" fill="#4c83cb" fill-rule="evenodd" stroke="#003052" stroke-width="1.092" stroke-linecap="square" stroke-linejoin="bevel" d="M86.436 115.844C109.304 101.982 102.888 109.547 122.88 104.365C136.208 100.911 146.621 99.1839 154.118 99.1839L162.448 9.01059C100.111 -4.31757 71.4418 -2.85981 76.4399 13.3839C83.937 37.7494 65.733 35.1504 52.2826 46.2878C38.8322 57.4251 18.5457 61.2125 10.2156 64.4058C-2.27956 69.1956 -1.86305 103.974 3.75977 108.764C9.38258 113.553 12.0899 113.97 14.5889 119.801C17.0879 125.632 28.3336 128.756 45.8268 131.88C63.32 135.003 63.5678 129.706 86.436 115.844Z" sodipodi:nodetypes="czcczzzzzcz"/><path id="shape5" transform="translate(203.908482788185, 64.3121953164721)" fill="none" stroke="#446ac1" stroke-width="1.092" stroke-linecap="square" stroke-linejoin="bevel" d="M0 2.70077C3.93863 2.81331 5.90794 1.91305 5.90794 0C10.7468 1.68798 14.7417 2.53198 17.8926 2.53198" sodipodi:nodetypes="ccc"/><path id="shape04" transform="translate(224.200199506109, 49.6645217736444)" fill="none" stroke="#446ac1" stroke-width="1.092" stroke-linecap="square" stroke-linejoin="bevel" d="M0 2.70077C3.93863 2.81331 4.1637 1.91305 6.75194 0C9.00263 1.68798 14.7417 2.53198 17.8926 2.53198" sodipodi:nodetypes="ccc"/><path id="shape05" transform="translate(227.91376459, 77.0098646641128)" fill="none" stroke="#446ac1" stroke-width="1.092" stroke-linecap="square" stroke-linejoin="bevel" d="M0 3.37596C3.93863 3.4885 2.81331 1.91305 5.40155 0C7.65224 1.68798 14.7417 3.20717 17.8926 3.20717" sodipodi:nodetypes="ccc"/><path id="shape06" transform="translate(186.726951841393, 78.8666472060582)" fill="none" stroke="#446ac1" stroke-width="1.092" stroke-linecap="square" stroke-linejoin="bevel" d="M0 3.20717C3.93863 3.31971 3.6573 1.91305 6.24554 0C8.49623 1.68798 14.7417 3.03838 17.8926 3.03838" sodipodi:nodetypes="ccc"/><path id="shape07" transform="translate(254.752712241756, 35.4854550896977)" fill="none" stroke="#446ac1" stroke-width="1.092" stroke-linecap="square" stroke-linejoin="bevel" d="M0 2.70077C3.93863 2.81331 7.20207 1.91305 9.79031 0C12.041 1.68798 14.7417 2.53198 17.8926 2.53198" sodipodi:nodetypes="ccc"/><path id="shape08" transform="translate(258.803874151455, 58.610837657563)" fill="none" stroke="#446ac1" stroke-width="1.092" stroke-linecap="square" stroke-linejoin="bevel" d="M0 2.70077C3.93863 2.81331 7.20207 1.91305 9.79031 0C12.041 1.68798 14.7417 2.53198 17.8926 2.53198" sodipodi:nodetypes="ccc"/><path id="shape09" transform="translate(270.45096464184, 10.3344915669829)" fill="none" stroke="#446ac1" stroke-width="1.092" stroke-linecap="square" stroke-linejoin="bevel" d="M0 2.70077C3.93863 2.81331 7.20207 1.91305 9.79031 0C12.041 1.68798 14.7417 2.53198 17.8926 2.53198" sodipodi:nodetypes="ccc"/><path id="shape010" transform="translate(278.384490048334, 25.8639455541625)" fill="none" stroke="#446ac1" stroke-width="1.092" stroke-linecap="square" stroke-linejoin="bevel" d="M0 2.70077C3.93863 2.81331 7.20207 1.91305 9.79031 0C12.041 1.68798 14.7417 2.53198 17.8926 2.53198" sodipodi:nodetypes="ccc"/><path id="shape012" transform="translate(292.56355673228, 54.2220789220558)" fill="none" stroke="#446ac1" stroke-width="1.092" stroke-linecap="square" stroke-linejoin="bevel" d="M0 2.70077C3.93863 2.81331 7.20207 1.91305 9.79031 0C12.041 1.68798 14.7417 2.53198 17.8926 2.53198" sodipodi:nodetypes="ccc"/><path id="shape013" transform="translate(241.41763762233, 19.2808074509016)" fill="none" stroke="#446ac1" stroke-width="1.092" stroke-linecap="square" stroke-linejoin="bevel" d="M0 2.70077C3.93863 2.81331 7.20207 1.91305 9.79031 0C12.041 1.68798 14.7417 2.53198 17.8926 2.53198" sodipodi:nodetypes="ccc"/><path id="shape014" transform="translate(203.944389957614, 99.6288519932657)" fill="none" stroke="#446ac1" stroke-width="1.092" stroke-linecap="square" stroke-linejoin="bevel" d="M0 3.03837C3.93863 3.15091 4.3325 1.91305 6.92074 0C9.17143 1.68798 14.7417 2.86958 17.8926 2.86958" sodipodi:nodetypes="ccc"/><path id="shape015" transform="translate(180.650208976844, 52.5340947930145)" fill="none" stroke="#446ac1" stroke-width="1.092" stroke-linecap="square" stroke-linejoin="bevel" d="M0 2.02558C3.93863 2.13812 2.64451 1.91305 5.23275 0C7.48344 1.68798 11.0281 1.85679 14.179 1.85679" sodipodi:nodetypes="ccc"/><path id="shape6" transform="translate(173.693566878346, 89.2943604262828)" fill="none" stroke="#3e63bb" stroke-width="1.092" stroke-linecap="square" stroke-linejoin="bevel" d="M0 0C5.85168 4.61382 9.62151 8.38365 11.3095 11.3095C12.9975 14.2353 16.486 16.3172 21.775 17.555" sodipodi:nodetypes="czc"/><path id="shape7" transform="translate(211.50441136887, 102.123039806996)" fill="none" stroke="#446ac1" stroke-width="1" stroke-linecap="square" stroke-linejoin="bevel" d="M0 9.11511C6.30181 10.4655 11.8722 9.67778 16.711 6.75194C21.5499 3.8261 24.8696 1.57545 26.6701 0" sodipodi:nodetypes="czc"/><path id="shape8" transform="translate(259.78075745945, 86.4)" fill="none" stroke="#3e63bb" stroke-width="1.092" stroke-linecap="square" stroke-linejoin="bevel" d="M0 4.41355C5.17648 1.47118 11.0282 0 17.555 0" sodipodi:nodetypes="cc"/><path id="shape9" transform="translate(263.663120956245, 84.5225469331982)" fill="none" stroke="#3e63bb" stroke-width="1.092" stroke-linecap="square" stroke-linejoin="bevel" d="M0 1.87745C4.05116 0.431058 7.42713 -0.179607 10.1279 0.0454579L10.1279 0.0454579" sodipodi:nodetypes="ccc"/><path id="shape10" transform="translate(185.678254194539, 95.0335064650231)" fill="none" stroke="#3e63bb" stroke-width="1.092" stroke-linecap="square" stroke-linejoin="bevel" d="M0 0C2.47571 3.71357 5.90794 6.52687 10.2967 8.43992" sodipodi:nodetypes="cc"/><path id="shape11" transform="translate(216.230766930186, 21.6061968517282)" fill="none" stroke="#3e63bb" stroke-width="1.092" stroke-linecap="square" stroke-linejoin="bevel" d="M0 12.9975C5.40155 8.38365 12.266 4.05116 20.5934 0" sodipodi:nodetypes="cc"/><path id="shape12" transform="translate(182.471084349361, 39.3300302066614)" fill="none" stroke="#3e63bb" stroke-width="1.092" stroke-linecap="square" stroke-linejoin="bevel" d="M24.1382 0C17.4988 2.58824 9.45271 5.12022 0 7.59593" sodipodi:nodetypes="cc"/><path id="shape13" transform="translate(204.583676439801, 32.2404968646881)" fill="none" stroke="#3e63bb" stroke-width="1.092" stroke-linecap="square" stroke-linejoin="bevel" d="M0 11.8159C7.08953 9.34018 13.7289 5.40155 19.9182 0" sodipodi:nodetypes="cc"/><path id="shape14" transform="translate(70.1678128988806, 33.1121474643352)" fill="#835b4a" fill-rule="evenodd" stroke="#4d2300" stroke-width="1.44" stroke-linecap="square" stroke-linejoin="bevel" d="M7.51037 67.0573C10.7036 65.5301 13.6191 55.4646 16.257 36.8607C18.8948 18.2568 19.7278 6.03932 18.756 0.208252L39.5813 0C31.5288 41.0952 30.0711 64.9054 35.208 71.4306C40.3448 77.9559 37.3599 77.4005 26.2531 69.7646C25.0036 80.4549 23.2681 83.0233 21.0468 77.4699C18.8254 71.9165 17.6453 70.5282 17.5065 73.3049C11.2589 83.5787 8.69047 85.1059 9.80115 77.8864C11.4672 67.0573 -1.86099 80.802 0.221532 75.5957C2.30406 70.3893 7.30212 67.6821 7.51037 67.0573Z" sodipodi:nodetypes="czcczczczcc"/><path id="shape15" transform="translate(62.2818155244254, 21.050058085993)" fill="#00ff20" fill-rule="evenodd" stroke="#377534" stroke-width="1.092" stroke-linecap="square" stroke-linejoin="bevel" d="M44.3435 42.9686C48.3951 42.4366 56.1444 48.5476 63.9192 45.6313C75.5813 41.2569 68.709 30.9864 69.3338 24.1394C69.9585 17.2925 75.7896 6.83184 57.6716 3.02797C45.593 0.492063 23.2433 -3.22609 9.5653 5.3103C-4.11275 13.8467 -0.569658 25.5342 4.56724 31.3668C12.2726 40.1157 13.9386 46.3921 27.475 45.6313C41.0114 44.8705 40.2919 43.5006 44.3435 42.9686Z" sodipodi:nodetypes="czzzzzcz"/><path id="shape16" transform="translate(75.4528905681444, 52.6651048260874)" fill="none" stroke="#43bd3d" stroke-width="0.72" stroke-linecap="square" stroke-linejoin="bevel" d="M0 0C0.274229 3.31653 3.76273 4.94781 10.4655 4.89386" sodipodi:nodetypes="cc"/><path id="shape016" transform="matrix(0.713566321252737 -0.700587685571078 0.700587685571078 0.713566321252737 97.2504501874035 57.1693665588964)" fill="none" stroke="#43bd3d" stroke-width="0.72" stroke-linecap="square" stroke-linejoin="bevel" d="M0 0C0.262682 3.83416 3.60429 5.72005 10.0248 5.65768" sodipodi:nodetypes="cc"/><path id="shape017" transform="matrix(0.989716053814083 -0.143045911590233 0.143045911590233 0.989716053814083 88.8989322391059 45.304869689318)" fill="none" stroke="#43bd3d" stroke-width="0.72" stroke-linecap="square" stroke-linejoin="bevel" d="M0 0C0.274229 3.31653 3.76273 4.94781 10.4655 4.89386" sodipodi:nodetypes="cc"/><path id="shape018" transform="translate(66.0698523310801, 42.1679976577243)" fill="none" stroke="#43bd3d" stroke-width="0.72" stroke-linecap="square" stroke-linejoin="bevel" d="M0 0C0.274229 3.31653 3.76273 4.94781 10.4655 4.89386" sodipodi:nodetypes="cc"/><path id="shape019" transform="matrix(0.989716053814083 -0.143045911590233 0.143045911590233 0.989716053814083 105.161411239271 37.1356508389078)" fill="none" stroke="#43bd3d" stroke-width="0.72" stroke-linecap="square" stroke-linejoin="bevel" d="M0 0C0.294955 2.83823 4.04712 4.23425 11.2565 4.18808" sodipodi:nodetypes="cc"/><path id="shape020" transform="matrix(0.989716053814083 -0.143045911590233 0.143045911590233 0.989716053814083 114.77010479559 31.631419389975)" fill="none" stroke="#43bd3d" stroke-width="0.72" stroke-linecap="square" stroke-linejoin="bevel" d="M0 0.136223C5.13614 -0.605582 9.69614 1.75659 10.7513 5.4125" sodipodi:nodetypes="cc"/><path id="shape021" transform="matrix(0.989716053814083 -0.143045911590233 0.143045911590233 0.989716053814083 82.4966840369693 27.8248821961087)" fill="none" stroke="#43bd3d" stroke-width="0.72" stroke-linecap="square" stroke-linejoin="bevel" d="M0 0.136223C5.13614 -0.605582 9.69614 1.75659 10.7513 5.4125" sodipodi:nodetypes="cc"/><path id="shape17" transform="matrix(0.840961057525523 -0.0964324754267182 0.167003249609275 0.823065776966398 121.828818720329 60.1243183108443)" fill="#835b4a" fill-rule="evenodd" stroke="#4d2300" stroke-width="1.44" stroke-linecap="square" stroke-linejoin="bevel" d="M7.51037 67.0573C10.7036 65.5301 13.6191 55.4646 16.257 36.8607C18.8948 18.2568 19.7278 6.03932 18.756 0.208252L39.5813 0C31.5288 41.0952 30.0711 64.9054 35.208 71.4306C40.3448 77.9559 37.3599 77.4005 26.2531 69.7646C25.0036 80.4549 23.2681 83.0233 21.0468 77.4699C18.8254 71.9165 17.6453 70.5282 17.5065 73.3049C11.2589 83.5787 8.69047 85.1059 9.80115 77.8864C11.4672 67.0573 -1.86099 80.802 0.221532 75.5957C2.30406 70.3893 7.30212 67.6821 7.51037 67.0573Z" sodipodi:nodetypes="czcczczczcc"/><path id="shape18" transform="matrix(0.840961057525523 -0.0964324754267182 0.167003249609275 0.823065776966398 113.182593905403 50.9568915928483)" fill="#00ff20" fill-rule="evenodd" stroke="#377534" stroke-width="1.092" stroke-linecap="square" stroke-linejoin="bevel" d="M44.3435 42.9686C48.3951 42.4366 53.5631 45.374 61.3379 42.4577C73 38.0832 69.8859 31.1243 70.5107 24.2773C71.1355 17.4304 75.7896 6.83184 57.6716 3.02797C45.593 0.492063 23.2433 -3.22609 9.5653 5.3103C-4.11275 13.8467 -0.569658 25.5342 4.56724 31.3668C12.2726 40.1157 13.9386 46.3921 27.475 45.6313C41.0114 44.8705 40.2919 43.5006 44.3435 42.9686Z" sodipodi:nodetypes="czzzzzcz"/><path id="shape022" transform="matrix(0.900181605471058 0 0 0.842382809109616 127.518992407413 73.9960149866268)" fill="none" stroke="#43bd3d" stroke-width="0.72" stroke-linecap="square" stroke-linejoin="bevel" d="M0 0C0.274229 3.31653 3.76273 4.94781 10.4655 4.89386" sodipodi:nodetypes="cc"/><path id="shape0110" transform="matrix(0.642339276675366 -0.590163022598969 0.630656147570626 0.601096002182895 147.140754620828 77.7903276380755)" fill="none" stroke="#43bd3d" stroke-width="0.72" stroke-linecap="square" stroke-linejoin="bevel" d="M0 0C0.262682 3.83416 3.60429 5.72005 10.0248 5.65768" sodipodi:nodetypes="cc"/><path id="shape023" transform="matrix(0.890924186282841 -0.120499416837026 0.128767298351367 0.833719789632791 139.622871786009 67.7958794364077)" fill="none" stroke="#43bd3d" stroke-width="0.72" stroke-linecap="square" stroke-linejoin="bevel" d="M0 0C0.274229 3.31653 3.76273 4.94781 10.4655 4.89386" sodipodi:nodetypes="cc"/><path id="shape031" transform="matrix(0.900181605471058 0 0 0.842382809109616 119.072553982976 65.1534323626165)" fill="none" stroke="#43bd3d" stroke-width="0.72" stroke-linecap="square" stroke-linejoin="bevel" d="M0 0C0.274229 3.31653 3.76273 4.94781 10.4655 4.89386" sodipodi:nodetypes="cc"/><path id="shape041" transform="matrix(0.890924186282841 -0.120499416837026 0.128767298351367 0.833719789632791 154.262056241318 60.914269912968)" fill="none" stroke="#43bd3d" stroke-width="0.72" stroke-linecap="square" stroke-linejoin="bevel" d="M0 0C0.294955 2.83823 4.04712 4.23425 11.2565 4.18808" sodipodi:nodetypes="cc"/><path id="shape051" transform="matrix(0.890924186282841 -0.120499416837026 0.128767298351367 0.833719789632791 162.911625477144 56.2776002467412)" fill="none" stroke="#43bd3d" stroke-width="0.72" stroke-linecap="square" stroke-linejoin="bevel" d="M0 0.136223C5.13614 -0.605582 9.69614 1.75659 10.7513 5.4125" sodipodi:nodetypes="cc"/><path id="shape061" transform="matrix(0.890924186282841 -0.120499416837026 0.128767298351367 0.833719789632791 133.859685764605 53.0710387523919)" fill="none" stroke="#43bd3d" stroke-width="0.72" stroke-linecap="square" stroke-linejoin="bevel" d="M0 0.136223C5.13614 -0.605582 9.69614 1.75659 10.7513 5.4125" sodipodi:nodetypes="cc"/>
</svg>
