<?xml version="1.0" standalone="no"?>
<!DOCTYPE svg PUBLIC "-//W3C//DTD SVG 20010904//EN" "http://www.w3.org/TR/2001/REC-SVG-20010904/DTD/svg10.dtd">
<!-- Created using Krita: https://krita.org -->
<svg xmlns="http://www.w3.org/2000/svg" 
    xmlns:xlink="http://www.w3.org/1999/xlink"
    xmlns:krita="http://krita.org/namespaces/svg/krita"
    xmlns:sodipodi="http://sodipodi.sourceforge.net/DTD/sodipodi-0.dtd"
    width="307.2pt"
    height="172.8pt"
    viewBox="0 0 307.2 172.8">
<defs/>
<path id="shape0" transform="translate(-28.4807045801344, 88.0313057812755)" fill="#b2b2b2" fill-rule="evenodd" stroke="#000000" stroke-width="0.48" stroke-linecap="square" stroke-linejoin="bevel" d="M25.3569 21.7178C40.0734 26.8547 50.139 31.575 55.5535 35.8789C63.6754 42.3348 84.0841 60.661 101.577 64.6178C119.071 68.5746 157.181 66.9086 179.047 72.9479C200.914 78.9872 192.167 78.9872 206.745 88.7751C216.463 95.3003 229.236 96.6887 245.063 92.9401C244.091 84.4712 246.105 78.6401 251.103 75.4469C258.6 70.6571 286.922 57.5372 332.113 52.3309C362.24 48.86 365.78 38.9333 342.734 22.5508C294.558 33.5187 264.986 38.8639 254.018 38.5862C237.566 38.1697 110.116 44.8338 94.0802 36.2954C78.0448 27.7571 66.5909 5.47407 24.9404 0.684259C-2.82659 -2.50895 -7.40815 5.47407 11.1958 24.6333" sodipodi:nodetypes="czzzzczzczzzc"/><path id="shape01" transform="translate(144.859291832596, -18.4774172819102)" fill="#cab40b" fill-rule="evenodd" stroke="#a69300" stroke-width="1.092" stroke-linecap="square" stroke-linejoin="bevel" d="M126.57 125.35C155.264 109.328 145.755 123.07 170.841 117.081C187.565 113.089 197.993 107.274 202.124 99.6384L220.416 38.2614C167.337 10.6765 131.391 -1.99272 112.577 0.25376C84.3554 3.62348 78.6021 37.563 60.1571 33.8274C41.7121 30.0919 32.0113 55.7518 21.559 59.4425C5.88039 64.9785 -4.84263 102.467 2.21273 108.003C9.26809 113.539 23.9107 116.728 27.0465 123.467C30.1822 130.207 34.528 138.254 66.2429 137.427C97.9578 136.6 97.8753 141.372 126.57 125.35Z" sodipodi:nodetypes="czcczzzzzzz"/><path id="shape02" transform="translate(166.174271907653, -17.9654433890738)" fill="#4c83cb" fill-rule="evenodd" stroke="#003052" stroke-width="1.092" stroke-linecap="square" stroke-linejoin="bevel" d="M86.436 115.844C109.304 101.982 102.888 109.547 122.88 104.365C136.208 100.911 146.621 99.1839 154.118 99.1839L162.448 9.01059C100.111 -4.31757 71.4418 -2.85981 76.4399 13.3839C83.937 37.7494 65.733 35.1504 52.2826 46.2878C38.8322 57.4251 18.5457 61.2125 10.2156 64.4058C-2.27956 69.1956 -1.86305 103.974 3.75977 108.764C9.38258 113.553 12.0899 113.97 14.5889 119.801C17.0879 125.632 28.3336 128.756 45.8268 131.88C63.32 135.003 63.5678 129.706 86.436 115.844Z" sodipodi:nodetypes="czcczzzzzcz"/><path id="shape1" transform="translate(203.908482788185, 64.3121953164721)" fill="none" stroke="#446ac1" stroke-width="1.092" stroke-linecap="square" stroke-linejoin="bevel" d="M0 2.70077C3.93863 2.81331 5.90794 1.91305 5.90794 0C10.7468 1.68798 14.7417 2.53198 17.8926 2.53198" sodipodi:nodetypes="ccc"/><path id="shape011" transform="translate(224.200199506109, 49.6645217736444)" fill="none" stroke="#446ac1" stroke-width="1.092" stroke-linecap="square" stroke-linejoin="bevel" d="M0 2.70077C3.93863 2.81331 4.1637 1.91305 6.75194 0C9.00263 1.68798 14.7417 2.53198 17.8926 2.53198" sodipodi:nodetypes="ccc"/><path id="shape021" transform="translate(227.91376459, 77.0098646641128)" fill="none" stroke="#446ac1" stroke-width="1.092" stroke-linecap="square" stroke-linejoin="bevel" d="M0 3.37596C3.93863 3.4885 2.81331 1.91305 5.40155 0C7.65224 1.68798 14.7417 3.20717 17.8926 3.20717" sodipodi:nodetypes="ccc"/><path id="shape03" transform="translate(186.726951841393, 78.8666472060582)" fill="none" stroke="#446ac1" stroke-width="1.092" stroke-linecap="square" stroke-linejoin="bevel" d="M0 3.20717C3.93863 3.31971 3.6573 1.91305 6.24554 0C8.49623 1.68798 14.7417 3.03838 17.8926 3.03838" sodipodi:nodetypes="ccc"/><path id="shape04" transform="translate(254.752712241756, 35.4854550896977)" fill="none" stroke="#446ac1" stroke-width="1.092" stroke-linecap="square" stroke-linejoin="bevel" d="M0 2.70077C3.93863 2.81331 7.20207 1.91305 9.79031 0C12.041 1.68798 14.7417 2.53198 17.8926 2.53198" sodipodi:nodetypes="ccc"/><path id="shape05" transform="translate(258.803874151455, 58.610837657563)" fill="none" stroke="#446ac1" stroke-width="1.092" stroke-linecap="square" stroke-linejoin="bevel" d="M0 2.70077C3.93863 2.81331 7.20207 1.91305 9.79031 0C12.041 1.68798 14.7417 2.53198 17.8926 2.53198" sodipodi:nodetypes="ccc"/><path id="shape06" transform="translate(270.45096464184, 10.3344915669829)" fill="none" stroke="#446ac1" stroke-width="1.092" stroke-linecap="square" stroke-linejoin="bevel" d="M0 2.70077C3.93863 2.81331 7.20207 1.91305 9.79031 0C12.041 1.68798 14.7417 2.53198 17.8926 2.53198" sodipodi:nodetypes="ccc"/><path id="shape07" transform="translate(278.384490048334, 25.8639455541625)" fill="none" stroke="#446ac1" stroke-width="1.092" stroke-linecap="square" stroke-linejoin="bevel" d="M0 2.70077C3.93863 2.81331 7.20207 1.91305 9.79031 0C12.041 1.68798 14.7417 2.53198 17.8926 2.53198" sodipodi:nodetypes="ccc"/><path id="shape08" transform="translate(292.56355673228, 54.2220789220558)" fill="none" stroke="#446ac1" stroke-width="1.092" stroke-linecap="square" stroke-linejoin="bevel" d="M0 2.70077C3.93863 2.81331 7.20207 1.91305 9.79031 0C12.041 1.68798 14.7417 2.53198 17.8926 2.53198" sodipodi:nodetypes="ccc"/><path id="shape09" transform="translate(241.41763762233, 19.2808074509016)" fill="none" stroke="#446ac1" stroke-width="1.092" stroke-linecap="square" stroke-linejoin="bevel" d="M0 2.70077C3.93863 2.81331 7.20207 1.91305 9.79031 0C12.041 1.68798 14.7417 2.53198 17.8926 2.53198" sodipodi:nodetypes="ccc"/><path id="shape010" transform="translate(203.944389957614, 99.6288519932657)" fill="none" stroke="#446ac1" stroke-width="1.092" stroke-linecap="square" stroke-linejoin="bevel" d="M0 3.03837C3.93863 3.15091 4.3325 1.91305 6.92074 0C9.17143 1.68798 14.7417 2.86958 17.8926 2.86958" sodipodi:nodetypes="ccc"/><path id="shape0111" transform="translate(180.650208976844, 52.5340947930145)" fill="none" stroke="#446ac1" stroke-width="1.092" stroke-linecap="square" stroke-linejoin="bevel" d="M0 2.02558C3.93863 2.13812 2.64451 1.91305 5.23275 0C7.48344 1.68798 11.0281 1.85679 14.179 1.85679" sodipodi:nodetypes="ccc"/><path id="shape2" transform="translate(173.693566878346, 89.2943604262828)" fill="none" stroke="#3e63bb" stroke-width="1.092" stroke-linecap="square" stroke-linejoin="bevel" d="M0 0C5.85168 4.61382 9.62151 8.38365 11.3095 11.3095C12.9975 14.2353 16.486 16.3172 21.775 17.555" sodipodi:nodetypes="czc"/><path id="shape3" transform="translate(211.50441136887, 102.123039806996)" fill="none" stroke="#446ac1" stroke-width="1" stroke-linecap="square" stroke-linejoin="bevel" d="M0 9.11511C6.30181 10.4655 11.8722 9.67778 16.711 6.75194C21.5499 3.8261 24.8696 1.57545 26.6701 0" sodipodi:nodetypes="czc"/><path id="shape4" transform="translate(259.78075745945, 86.4)" fill="none" stroke="#3e63bb" stroke-width="1.092" stroke-linecap="square" stroke-linejoin="bevel" d="M0 4.41355C5.17648 1.47118 11.0282 0 17.555 0" sodipodi:nodetypes="cc"/><path id="shape5" transform="translate(263.663120956245, 84.5225467697425)" fill="none" stroke="#3e63bb" stroke-width="1.092" stroke-linecap="square" stroke-linejoin="bevel" d="M0 1.87745C4.05116 0.431058 7.42713 -0.179607 10.1279 0.0454581L10.1279 0.0454581" sodipodi:nodetypes="ccc"/><path id="shape6" transform="translate(185.678254194539, 95.0335064650231)" fill="none" stroke="#3e63bb" stroke-width="1.092" stroke-linecap="square" stroke-linejoin="bevel" d="M0 0C2.47571 3.71357 5.90794 6.52687 10.2967 8.43992" sodipodi:nodetypes="cc"/><path id="shape7" transform="translate(216.230766930186, 21.6061968517282)" fill="none" stroke="#3e63bb" stroke-width="1.092" stroke-linecap="square" stroke-linejoin="bevel" d="M0 12.9975C5.40155 8.38365 12.266 4.05116 20.5934 0" sodipodi:nodetypes="cc"/><path id="shape8" transform="translate(182.471084349361, 39.3300302066614)" fill="none" stroke="#3e63bb" stroke-width="1.092" stroke-linecap="square" stroke-linejoin="bevel" d="M24.1382 0C17.4988 2.58824 9.45271 5.12022 0 7.59593" sodipodi:nodetypes="cc"/><path id="shape9" transform="translate(204.583676439801, 32.2404968646881)" fill="none" stroke="#3e63bb" stroke-width="1.092" stroke-linecap="square" stroke-linejoin="bevel" d="M0 11.8159C7.08953 9.34018 13.7289 5.40155 19.9182 0" sodipodi:nodetypes="cc"/>
</svg>
