<?xml version="1.0" standalone="no"?>
<!DOCTYPE svg PUBLIC "-//W3C//DTD SVG 20010904//EN" "http://www.w3.org/TR/2001/REC-SVG-20010904/DTD/svg10.dtd">
<!-- Created using Krita: https://krita.org -->
<svg xmlns="http://www.w3.org/2000/svg" 
    xmlns:xlink="http://www.w3.org/1999/xlink"
    xmlns:krita="http://krita.org/namespaces/svg/krita"
    xmlns:sodipodi="http://sodipodi.sourceforge.net/DTD/sodipodi-0.dtd"
    width="307.2pt"
    height="172.8pt"
    viewBox="0 0 307.2 172.8">
<defs/>
<path id="shape0" transform="matrix(0.840961057525523 -0.0964324754267182 0.167003249609275 0.823065776966398 121.828819582549 60.124318211974)" fill="#835b4a" fill-rule="evenodd" stroke="#5d4c3f" stroke-width="0.72" stroke-linecap="square" stroke-linejoin="bevel" d="M7.51037 67.0573C10.7036 65.5301 13.6191 55.4646 16.257 36.8607C18.8948 18.2568 19.7278 6.03932 18.756 0.208252L39.5813 0C31.5288 41.0952 30.0711 64.9054 35.208 71.4306C40.3448 77.9559 37.3599 77.4005 26.2531 69.7646C25.0036 80.4549 23.2681 83.0233 21.0468 77.4699C18.8254 71.9165 17.6453 70.5282 17.5065 73.3049C11.2589 83.5787 8.69047 85.1059 9.80115 77.8864C11.4672 67.0573 -1.86099 80.802 0.221531 75.5957C2.30406 70.3893 7.30212 67.6821 7.51037 67.0573Z" sodipodi:nodetypes="czcczczczcc"/><path id="shape1" transform="matrix(0.840961057525523 -0.0964324754267182 0.167003249609275 0.823065776966398 113.18259458071 50.9568921579212)" fill="#00ff20" fill-rule="evenodd" stroke="#069e02" stroke-width="0.72" stroke-linecap="square" stroke-linejoin="bevel" d="M44.3435 42.9686C48.3951 42.4366 53.5631 45.374 61.3379 42.4577C73 38.0832 69.8859 31.1243 70.5107 24.2773C71.1355 17.4304 75.7896 6.83184 57.6716 3.02797C45.593 0.492062 23.2433 -3.22609 9.5653 5.3103C-4.11275 13.8467 -0.569659 25.5342 4.56724 31.3668C12.2726 40.1157 13.9386 46.3921 27.475 45.6313C41.0114 44.8705 40.2919 43.5006 44.3435 42.9686Z" sodipodi:nodetypes="czzzzzcz"/><path id="shape01" transform="matrix(0.900181605471058 0 0 0.842382809109616 127.518992407413 73.9960149866268)" fill="none" stroke="#27e41e" stroke-width="0.72" stroke-linecap="square" stroke-linejoin="bevel" d="M0 0C0.274229 3.31653 3.76273 4.94781 10.4655 4.89386" sodipodi:nodetypes="cc"/><path id="shape011" transform="matrix(0.642339276675366 -0.590163022598969 0.630656147570626 0.601096002182895 147.140754620828 77.7903276380755)" fill="none" stroke="#27e41e" stroke-width="0.72" stroke-linecap="square" stroke-linejoin="bevel" d="M0 0C0.262682 3.83416 3.60429 5.72005 10.0248 5.65768" sodipodi:nodetypes="cc"/><path id="shape02" transform="matrix(0.890924186282841 -0.120499416837026 0.128767298351367 0.833719789632791 139.622871786009 67.7958794364077)" fill="none" stroke="#27e41e" stroke-width="0.72" stroke-linecap="square" stroke-linejoin="bevel" d="M0 0C0.274229 3.31653 3.76273 4.94781 10.4655 4.89386" sodipodi:nodetypes="cc"/><path id="shape03" transform="matrix(0.900181605471058 0 0 0.842382809109616 119.072553982976 65.1534323626165)" fill="none" stroke="#27e41e" stroke-width="0.72" stroke-linecap="square" stroke-linejoin="bevel" d="M0 0C0.274229 3.31653 3.76273 4.94781 10.4655 4.89386" sodipodi:nodetypes="cc"/><path id="shape04" transform="matrix(0.890924186282841 -0.120499416837026 0.128767298351367 0.833719789632791 154.262056241318 60.914269912968)" fill="none" stroke="#27e41e" stroke-width="0.72" stroke-linecap="square" stroke-linejoin="bevel" d="M0 0C0.294955 2.83823 4.04712 4.23425 11.2565 4.18808" sodipodi:nodetypes="cc"/><path id="shape05" transform="matrix(0.890924186282841 -0.120499416837026 0.128767298351367 0.833719789632791 162.911625520964 56.277600530456)" fill="none" stroke="#27e41e" stroke-width="0.72" stroke-linecap="square" stroke-linejoin="bevel" d="M0 0.136223C5.13614 -0.605582 9.69614 1.75659 10.7513 5.4125" sodipodi:nodetypes="cc"/><path id="shape06" transform="matrix(0.890924186282841 -0.120499416837026 0.128767298351367 0.833719789632791 133.859685808425 53.0710390361067)" fill="none" stroke="#27e41e" stroke-width="0.72" stroke-linecap="square" stroke-linejoin="bevel" d="M0 0.136223C5.13614 -0.605582 9.69614 1.75659 10.7513 5.4125" sodipodi:nodetypes="cc"/>
</svg>
