<?xml version="1.0" standalone="no"?>
<!DOCTYPE svg PUBLIC "-//W3C//DTD SVG 20010904//EN" "http://www.w3.org/TR/2001/REC-SVG-20010904/DTD/svg10.dtd">
<!-- Created using Krita: https://krita.org -->
<svg xmlns="http://www.w3.org/2000/svg" 
    xmlns:xlink="http://www.w3.org/1999/xlink"
    xmlns:krita="http://krita.org/namespaces/svg/krita"
    xmlns:sodipodi="http://sodipodi.sourceforge.net/DTD/sodipodi-0.dtd"
    width="307.2pt"
    height="172.8pt"
    viewBox="0 0 307.2 172.8">
<defs/>
<path id="shape0" transform="translate(70.1678139241605, 33.1121474643352)" fill="#835b4a" fill-rule="evenodd" stroke="#4d2300" stroke-width="1.44" stroke-linecap="square" stroke-linejoin="bevel" d="M7.51037 67.0573C10.7036 65.5301 13.6191 55.4646 16.257 36.8607C18.8948 18.2568 19.7278 6.03932 18.756 0.208252L39.5813 0C31.5288 41.0952 30.0711 64.9054 35.208 71.4306C40.3448 77.9559 37.3599 77.4005 26.2531 69.7646C25.0036 80.4549 23.2681 83.0233 21.0468 77.4699C18.8254 71.9165 17.6453 70.5282 17.5065 73.3049C11.2589 83.5787 8.69047 85.1059 9.80115 77.8864C11.4672 67.0573 -1.86099 80.802 0.221531 75.5957C2.30406 70.3893 7.30212 67.6821 7.51037 67.0573Z" sodipodi:nodetypes="czcczczczcc"/><path id="shape1" transform="translate(62.2818161759461, 21.0500588488733)" fill="#00ff20" fill-rule="evenodd" stroke="#377534" stroke-width="1.092" stroke-linecap="square" stroke-linejoin="bevel" d="M44.3435 42.9686C48.3951 42.4366 56.1444 48.5476 63.9192 45.6313C75.5813 41.2569 68.709 30.9864 69.3338 24.1394C69.9585 17.2925 75.7896 6.83184 57.6716 3.02797C45.593 0.492062 23.2433 -3.22609 9.5653 5.3103C-4.11275 13.8467 -0.569659 25.5342 4.56724 31.3668C12.2726 40.1157 13.9386 46.3921 27.475 45.6313C41.0114 44.8705 40.2919 43.5006 44.3435 42.9686Z" sodipodi:nodetypes="czzzzzcz"/><path id="shape2" transform="translate(75.4528905681444, 52.6651048260874)" fill="none" stroke="#43bd3d" stroke-width="0.72" stroke-linecap="square" stroke-linejoin="bevel" d="M0 0C0.274229 3.31653 3.76273 4.94781 10.4655 4.89386" sodipodi:nodetypes="cc"/><path id="shape01" transform="matrix(0.713566321252737 -0.700587685571078 0.700587685571078 0.713566321252737 97.2504501874035 57.1693665588964)" fill="none" stroke="#43bd3d" stroke-width="0.72" stroke-linecap="square" stroke-linejoin="bevel" d="M0 0C0.262682 3.83416 3.60429 5.72005 10.0248 5.65768" sodipodi:nodetypes="cc"/><path id="shape02" transform="matrix(0.989716053814083 -0.143045911590233 0.143045911590233 0.989716053814083 88.8989322391059 45.304869689318)" fill="none" stroke="#43bd3d" stroke-width="0.72" stroke-linecap="square" stroke-linejoin="bevel" d="M0 0C0.274229 3.31653 3.76273 4.94781 10.4655 4.89386" sodipodi:nodetypes="cc"/><path id="shape03" transform="translate(66.0698523310801, 42.1679976577243)" fill="none" stroke="#43bd3d" stroke-width="0.72" stroke-linecap="square" stroke-linejoin="bevel" d="M0 0C0.274229 3.31653 3.76273 4.94781 10.4655 4.89386" sodipodi:nodetypes="cc"/><path id="shape04" transform="matrix(0.989716053814083 -0.143045911590233 0.143045911590233 0.989716053814083 105.161411239271 37.1356508389078)" fill="none" stroke="#43bd3d" stroke-width="0.72" stroke-linecap="square" stroke-linejoin="bevel" d="M0 0C0.294955 2.83823 4.04712 4.23425 11.2565 4.18808" sodipodi:nodetypes="cc"/><path id="shape05" transform="matrix(0.989716053814083 -0.143045911590233 0.143045911590233 0.989716053814083 114.770104844269 31.6314197267753)" fill="none" stroke="#43bd3d" stroke-width="0.72" stroke-linecap="square" stroke-linejoin="bevel" d="M0 0.136223C5.13614 -0.605582 9.69614 1.75659 10.7513 5.4125" sodipodi:nodetypes="cc"/><path id="shape06" transform="matrix(0.989716053814083 -0.143045911590233 0.143045911590233 0.989716053814083 82.4966840856478 27.824882532909)" fill="none" stroke="#43bd3d" stroke-width="0.72" stroke-linecap="square" stroke-linejoin="bevel" d="M0 0.136223C5.13614 -0.605582 9.69614 1.75659 10.7513 5.4125" sodipodi:nodetypes="cc"/>
</svg>
